# 3ds Max Wavefront OBJ Exporter v0.97b - (c)2007 guruware
# File Created: 03.01.2017 11:01:40

#
# object Glasses01
#

v  10.2481 28.3292 5.4013
v  10.2481 30.8376 5.4013
v  10.2481 30.8376 9.5470
v  10.2481 28.3292 9.5470
v  -0.0000 28.3292 5.4013
v  -0.0000 30.8376 5.4013
v  10.2481 33.3460 9.5470
v  0.0000 33.3460 9.5470
v  0.0000 30.8376 9.5470
v  0.0000 28.3292 9.5470
v  10.2481 33.3460 5.4013
v  -0.0000 33.3460 5.4013
v  -10.2481 28.3292 5.4013
v  -10.2481 28.3292 9.5470
v  -10.2481 30.8376 9.5470
v  -10.2481 30.8376 5.4013
v  -10.2481 33.3460 9.5470
v  -10.2481 33.3460 5.4013
# 18 vertices

vn 1.0000 0.0000 -0.0000
vn -0.0000 0.0000 -1.0000
vn 0.0000 0.0000 -1.0000
vn 0.0000 0.0000 1.0000
vn 0.0000 -1.0000 0.0000
vn 0.0000 -1.0000 -0.0000
vn -0.0000 -1.0000 0.0000
vn 0.0000 1.0000 -0.0000
vn 0.0000 -0.0000 -1.0000
vn -1.0000 0.0000 -0.0000
# 10 vertex normals

vt 1.0000 0.0000 0.0000
vt 1.0000 0.5000 0.0000
vt 0.0000 0.5000 0.0000
vt 0.0000 0.0000 0.0000
vt 0.5000 0.0000 0.0000
vt 0.5000 0.5000 0.0000
vt 1.0000 1.0000 0.0000
vt 0.5000 1.0000 0.0000
vt 0.0000 1.0000 0.0000
# 9 texture coords

g Glasses01
s 16
f 1/1/1 2/2/1 3/3/1 4/4/1 
s 32
f 5/5/2 6/6/3 2/3/2 1/4/2 
s 8
f 7/7/4 8/8/4 9/6/4 3/2/4 
s 2
f 1/9/5 4/4/6 10/5/7 5/8/7 
s 4
f 7/1/8 11/7/8 12/8/8 8/5/8 
s 8
f 4/1/4 3/2/4 9/6/4 10/5/4 
s 32
f 11/9/9 2/3/2 6/6/3 12/8/9 
s 16
f 13/1/10 14/4/10 15/3/10 16/2/10 
s 32
f 5/5/2 13/4/3 16/3/3 6/6/3 
s 8
f 17/7/4 15/2/4 9/6/4 8/8/4 
s 2
f 13/9/7 5/8/7 10/5/7 14/4/6 
s 4
f 17/1/8 8/5/8 12/8/8 18/7/8 
s 8
f 14/1/4 10/5/4 9/6/4 15/2/4 
s 32
f 18/9/9 12/8/9 6/6/3 16/3/3 
s off
f 17/7/10 18/7/10 16/3/10 15/3/10 
f 3/2/1 2/2/1 11/9/1 7/1/1 
# 16 polygons

