# 3ds Max Wavefront OBJ Exporter v0.97b - (c)2007 guruware
# File Created: 03.01.2017 11:04:31

#
# object Glasses02
#

v  10.2481 27.7109 2.8825
v  10.2481 30.8376 2.8825
v  10.2481 30.8376 9.5470
v  10.2481 27.7109 9.5470
v  -0.0000 27.7109 5.4013
v  -0.0000 30.8376 5.4013
v  10.2481 33.9643 9.5470
v  0.0000 33.9643 9.5470
v  0.0000 30.8376 9.5470
v  0.0000 27.7109 9.5470
v  10.2481 33.9643 2.8825
v  -0.0000 33.9643 5.4013
v  -10.2481 27.7109 2.8825
v  -10.2481 27.7109 9.5470
v  -10.2481 30.8376 9.5470
v  -10.2481 30.8376 2.8825
v  -10.2481 33.9643 9.5470
v  -10.2481 33.9643 2.8825
v  -20.2481 36.0373 -6.3925
v  -20.2481 36.0373 -7.2839
v  -20.2481 34.8555 -7.2839
v  -20.2481 34.8555 -6.3925
v  20.2481 34.8555 -6.3925
v  20.2481 34.8555 -7.2839
v  20.2481 36.0373 -7.2839
v  20.2481 36.0373 -6.3925
# 26 vertices

vn 1.0000 0.0000 -0.0000
vn -0.0000 0.0000 -1.0000
vn -0.0000 -0.0000 -1.0000
vn -0.2387 0.0000 -0.9711
vn 0.0000 0.0000 1.0000
vn 0.0000 -1.0000 0.0000
vn 0.0000 -1.0000 -0.0000
vn 0.0000 1.0000 -0.0000
vn -0.2387 -0.0000 -0.9711
vn 0.0000 -0.0000 -1.0000
vn -1.0000 0.0000 -0.0000
vn 0.2387 0.0000 -0.9711
vn -0.0000 -1.0000 0.0000
vn 0.2387 -0.0000 -0.9711
vn -0.2479 -0.9688 -0.0000
vn -0.8471 0.0000 0.5314
vn 0.1309 0.9914 -0.0000
vn 0.7129 -0.0000 -0.7012
vn -0.1309 0.9914 -0.0000
vn 0.8471 0.0000 0.5314
vn 0.2479 -0.9688 -0.0000
vn -0.7129 0.0000 -0.7012
# 22 vertex normals

vt 1.0000 0.0000 0.0000
vt 1.0000 0.5000 0.0000
vt 0.0000 0.5000 0.0000
vt 0.0000 0.0000 0.0000
vt 0.5000 0.0000 0.0000
vt 0.5000 0.5000 0.0000
vt 1.0000 1.0000 0.0000
vt 0.5000 1.0000 0.0000
vt 0.0000 1.0000 0.0000
# 9 texture coords

g Glasses02
s 16
f 1/1/1 2/2/1 3/3/1 4/4/1 
s 32
f 5/5/2 6/6/3 2/3/4 1/4/4 
s 8
f 7/7/5 8/8/5 9/6/5 3/2/5 
s 2
f 1/9/6 4/4/7 10/5/6 5/8/6 
s 4
f 7/1/8 11/7/8 12/8/8 8/5/8 
s 8
f 4/1/5 3/2/5 9/6/5 10/5/5 
s 32
f 11/9/9 2/3/4 6/6/3 12/8/10 
s 16
f 13/1/11 14/4/11 15/3/11 16/2/11 
s 32
f 5/5/2 13/4/12 16/3/12 6/6/3 
s 8
f 17/7/5 15/2/5 9/6/5 8/8/5 
s 2
f 13/9/13 5/8/6 10/5/6 14/4/7 
s 4
f 17/1/8 8/5/8 12/8/8 18/7/8 
s 8
f 14/1/5 10/5/5 9/6/5 15/2/5 
s 32
f 18/9/14 12/8/10 6/6/3 16/3/12 
s off
f 19/7/11 20/7/11 21/3/11 22/3/11 
f 23/2/1 24/2/1 25/9/1 26/1/1 
f 16/3/15 15/3/15 22/3/15 21/3/15 
f 15/3/16 17/7/16 19/7/16 22/3/16 
f 17/7/17 18/7/17 20/7/17 19/7/17 
f 18/7/18 16/3/18 21/3/18 20/7/18 
f 11/9/19 7/1/19 26/1/19 25/9/19 
f 7/1/20 3/2/20 23/2/20 26/1/20 
f 3/2/21 2/2/21 24/2/21 23/2/21 
f 2/2/22 11/9/22 25/9/22 24/2/22 
# 24 polygons

